<?xml version="1.0" encoding="utf-8" standalone="no"?>
<!DOCTYPE svg PUBLIC "-//W3C//DTD SVG 1.1//EN"
  "http://www.w3.org/Graphics/SVG/1.1/DTD/svg11.dtd">
<svg xmlns:xlink="http://www.w3.org/1999/xlink" width="414.72pt" height="445.968pt" viewBox="0 0 414.72 445.968" xmlns="http://www.w3.org/2000/svg" version="1.1">
 <metadata>
  <rdf:RDF xmlns:dc="http://purl.org/dc/elements/1.1/" xmlns:cc="http://creativecommons.org/ns#" xmlns:rdf="http://www.w3.org/1999/02/22-rdf-syntax-ns#">
   <cc:Work>
    <dc:type rdf:resource="http://purl.org/dc/dcmitype/StillImage"/>
    <dc:date>2025-09-17T14:20:00.951776</dc:date>
    <dc:format>image/svg+xml</dc:format>
    <dc:creator>
     <cc:Agent>
      <dc:title>Matplotlib v3.6.3, https://matplotlib.org/</dc:title>
     </cc:Agent>
    </dc:creator>
   </cc:Work>
  </rdf:RDF>
 </metadata>
 <defs>
  <style type="text/css">*{stroke-linejoin: round; stroke-linecap: butt}</style>
 </defs>
 <g id="figure_1">
  <g id="patch_1">
   <path d="M 0 445.968 
L 414.72 445.968 
L 414.72 0 
L 0 0 
L 0 445.968 
z
" style="fill: none"/>
  </g>
  <g id="axes_1">
   <g id="text_1">
    <!-- $\mathscr{X}$ -->
    <g style="fill: #333333" transform="translate(0 350.136) scale(4.608 -4.608)">
     <defs>
      <path id="STIXGeneral-Italic-1d4b3" d="M 3654 3130 
L 3667 3130 
Q 4384 4397 5114 4397 
Q 5325 4397 5456 4297 
Q 5587 4198 5587 3994 
Q 5587 3827 5484 3731 
Q 5382 3635 5242 3635 
Q 5107 3635 5014 3712 
Q 4922 3789 4922 3930 
Q 4922 4077 5030 4186 
Q 4691 4186 4265 3619 
Q 3840 3053 3405 2067 
Q 2976 1101 2976 608 
Q 2976 192 3296 192 
Q 3469 192 3699 377 
Q 3930 563 4294 986 
L 4422 890 
Q 4026 378 3747 144 
Q 3469 -90 3110 -90 
Q 2803 -90 2633 73 
Q 2464 237 2464 550 
Q 2464 755 2522 902 
L 2509 902 
Q 2163 410 1795 157 
Q 1427 -96 960 -96 
Q 621 -96 425 112 
Q 230 320 230 582 
Q 230 774 332 908 
Q 435 1043 602 1043 
Q 730 1043 829 953 
Q 928 864 928 742 
Q 928 608 841 505 
Q 755 403 627 403 
Q 531 403 467 442 
Q 621 96 1069 96 
Q 1421 96 1824 515 
Q 2227 934 2605 1594 
Q 3168 2586 3168 3238 
Q 3168 4186 2374 4186 
Q 1939 4186 1641 3904 
Q 1344 3622 1344 3181 
Q 1344 2912 1488 2742 
Q 1632 2573 1901 2573 
Q 2464 2573 2707 3251 
L 2829 3219 
Q 2720 2829 2467 2605 
Q 2214 2381 1882 2381 
Q 1517 2381 1299 2598 
Q 1082 2816 1082 3187 
Q 1082 3699 1462 4048 
Q 1843 4397 2394 4397 
Q 2963 4397 3308 4035 
Q 3654 3674 3654 3130 
z
" transform="scale(0.015625)"/>
     </defs>
     <use xlink:href="#STIXGeneral-Italic-1d4b3" transform="translate(0 0.296875)"/>
    </g>
   </g>
  </g>
 </g>
</svg>
